<svg viewBox="0 0 680 460" xmlns="http://www.w3.org/2000/svg"
     style="font-family:-apple-system,system-ui,sans-serif;background:white;">
  <text x="340" y="20" text-anchor="middle" font-size="13" font-weight="700" fill="#222">
    Dorsal Striatum: High Glutamate Drive Meets D1/D2 Dopamine Balance
  </text>
  <text x="340" y="38" text-anchor="middle" font-size="10" fill="#666">
    Allen Mouse Brain Atlas ISH · Drd1 vs Grin2b (GluN2B) · dot size = Drd2 expression
  </text>
  <text x="340" y="54" text-anchor="middle" font-size="10" fill="#444">
    CP (dorsal striatum) has among the highest Grin2b of any region — peak glutamatergic excitability in the LID circuit
  </text>
  <line x1="172.6" y1="60" x2="172.6" y2="392" stroke="#eee" stroke-width="1"/><text x="172.6" y="410" text-anchor="middle" font-size="9" fill="#bbb">0.02</text><line x1="267.3" y1="60" x2="267.3" y2="392" stroke="#eee" stroke-width="1"/><text x="267.3" y="410" text-anchor="middle" font-size="9" fill="#bbb">0.04</text><line x1="361.9" y1="60" x2="361.9" y2="392" stroke="#eee" stroke-width="1"/><text x="361.9" y="410" text-anchor="middle" font-size="9" fill="#bbb">0.06</text><line x1="456.6" y1="60" x2="456.6" y2="392" stroke="#eee" stroke-width="1"/><text x="456.6" y="410" text-anchor="middle" font-size="9" fill="#bbb">0.08</text><line x1="551.2" y1="60" x2="551.2" y2="392" stroke="#eee" stroke-width="1"/><text x="551.2" y="410" text-anchor="middle" font-size="9" fill="#bbb">0.10</text><line x1="78" y1="309.6" x2="650" y2="309.6" stroke="#eee" stroke-width="1"/><text x="70" y="313.6" text-anchor="end" font-size="9" fill="#bbb">0.04</text><line x1="78" y1="227.3" x2="650" y2="227.3" stroke="#eee" stroke-width="1"/><text x="70" y="231.3" text-anchor="end" font-size="9" fill="#bbb">0.08</text><line x1="78" y1="144.9" x2="650" y2="144.9" stroke="#eee" stroke-width="1"/><text x="70" y="148.9" text-anchor="end" font-size="9" fill="#bbb">0.12</text><line x1="78" y1="60" x2="78" y2="392" stroke="#ccc" stroke-width="1.2"/><line x1="78" y1="392" x2="650" y2="392" stroke="#ccc" stroke-width="1.2"/><text x="364" y="428" text-anchor="middle" font-size="10.5" fill="#555">Drd1 expression density (D1 receptor, Allen ISH)</text><text x="26" y="226" text-anchor="middle" font-size="10.5" fill="#555" transform="rotate(-90,26,226)">Grin2b expression (GluN2B)</text><circle cx="143.5" cy="95.6" r="14.6" fill="none" stroke="#c0392b" stroke-width="1" opacity="0.35"/><circle cx="143.5" cy="95.6" r="10.6" fill="#c0392b" opacity="0.82" stroke="white" stroke-width="2.5"/><circle cx="575.4" cy="157.6" r="28.0" fill="none" stroke="#e74c3c" stroke-width="1" opacity="0.35"/><circle cx="575.4" cy="157.6" r="24.0" fill="#e74c3c" opacity="0.82" stroke="white" stroke-width="2.5"/><circle cx="182.2" cy="121.0" r="12.3" fill="none" stroke="#e67e22" stroke-width="1" opacity="0.35"/><circle cx="182.2" cy="121.0" r="8.3" fill="#e67e22" opacity="0.82" stroke="white" stroke-width="2.5"/><circle cx="99.2" cy="105.1" r="6.3" fill="#2980b9" opacity="0.82" stroke="white" stroke-width="1.5"/><circle cx="101.2" cy="193.6" r="7.4" fill="#8e44ad" opacity="0.82" stroke="white" stroke-width="1.5"/><circle cx="82.0" cy="304.3" r="9.3" fill="#7f8c8d" opacity="0.82" stroke="white" stroke-width="1.5"/><circle cx="80.6" cy="368.4" r="6.5" fill="#95a5a6" opacity="0.82" stroke="white" stroke-width="1.5"/><circle cx="95.7" cy="191.9" r="6.5" fill="#27ae60" opacity="0.82" stroke="white" stroke-width="1.5"/><line x1="143.5" y1="87.6" x2="153.3" y2="77.7" stroke="#c0392b" stroke-width="0.8" opacity="0.5"/><text x="157.3" y="77.7" text-anchor="start" font-size="10" fill="#c0392b" font-weight="700">CP</text><line x1="579.4" y1="157.6" x2="583.4" y2="162.6" stroke="#e74c3c" stroke-width="0.8" opacity="0.5"/><text x="587.4" y="162.6" text-anchor="start" font-size="10" fill="#e74c3c" font-weight="700">ACB</text><line x1="186.2" y1="115.0" x2="190.1" y2="107.0" stroke="#e67e22" stroke-width="0.8" opacity="0.5"/><text x="194.1" y="107.0" text-anchor="start" font-size="10" fill="#e67e22" font-weight="700">OT</text><line x1="95.2" y1="99.1" x2="91.3" y2="91.1" stroke="#2980b9" stroke-width="0.8" opacity="0.5"/><text x="87.3" y="91.1" text-anchor="end" font-size="10" fill="#2980b9" font-weight="400">MOp</text><line x1="97.2" y1="199.6" x2="93.2" y2="209.5" stroke="#8e44ad" stroke-width="0.8" opacity="0.5"/><text x="89.2" y="209.5" text-anchor="end" font-size="10" fill="#8e44ad" font-weight="400">Thal</text><line x1="78.0" y1="310.3" x2="73.8" y2="320.3" stroke="#7f8c8d" stroke-width="0.8" opacity="0.5"/><text x="69.8" y="320.3" text-anchor="end" font-size="10" fill="#7f8c8d" font-weight="400">SNr</text><line x1="76.6" y1="374.4" x2="72.8" y2="382.3" stroke="#95a5a6" stroke-width="0.8" opacity="0.5"/><text x="68.8" y="382.3" text-anchor="end" font-size="10" fill="#95a5a6" font-weight="400">Cereb</text><line x1="99.7" y1="185.9" x2="103.5" y2="177.8" stroke="#27ae60" stroke-width="0.8" opacity="0.5"/><text x="107.5" y="177.8" text-anchor="start" font-size="10" fill="#27ae60" font-weight="400">Hipp</text><text x="570" y="330" text-anchor="middle" font-size="9" fill="#888">bubble = Drd2</text><circle cx="550" cy="346" r="10.5" fill="#aaa" opacity="0.5" stroke="white" stroke-width="1.5"/><circle cx="590" cy="346" r="19.6" fill="#aaa" opacity="0.5" stroke="white" stroke-width="1.5"/>
</svg>